<svg height="512pt" viewBox="0 -37 512 512" width="512pt" xmlns="http://www.w3.org/2000/svg"><path d="m495.171875 430.6875h-478.34375c-5.152344 0-9.328125-4.179688-9.328125-9.332031v-15.671875c0-5.152344 4.175781-9.332032 9.328125-9.332032h478.34375c5.152344 0 9.328125 4.179688 9.328125 9.332032v15.671875c0 5.152343-4.175781 9.332031-9.328125 9.332031zm0 0" fill="#cf7f53"/><path d="m495.171875 396.351562h-36.5c5.152344 0 9.328125 4.179688 9.328125 9.332032v15.671875c0 5.15625-4.175781 9.332031-9.328125 9.332031h36.5c5.152344 0 9.328125-4.175781 9.328125-9.332031v-15.671875c0-5.152344-4.175781-9.332032-9.328125-9.332032zm0 0" fill="#b56f49"/><path d="m476.132812 396.351562h-440.265624c-5.152344 0-9.332032-4.175781-9.332032-9.328124v-267.257813c0-5.152344 4.179688-9.328125 9.332032-9.328125h440.265624c5.152344 0 9.332032 4.175781 9.332032 9.328125v267.257813c0 5.152343-4.179688 9.328124-9.332032 9.328124zm0 0" fill="#e88e5d"/><path d="m476.132812 110.4375h-21.667968v243.46875c0 5.152344-4.179688 9.328125-9.332032 9.328125h-418.597656v23.789063c0 5.152343 4.179688 9.328124 9.332032 9.328124h440.265624c5.152344 0 9.332032-4.175781 9.332032-9.328124v-267.257813c0-5.152344-4.179688-9.328125-9.332032-9.328125zm0 0" fill="#cf7f53"/><path d="m56.535156 140.4375h398.929688v225.914062h-398.929688zm0 0" fill="#5bb68d"/><path d="m429.148438 140.4375v171.351562c0 15.601563-12.648438 28.25-28.25 28.25h-344.363282v26.3125h398.929688v-225.914062zm0 0" fill="#52a37e"/><path d="m225 396.351562h-100v-25.839843c0-10.492188 8.507812-19 19-19h62c10.492188 0 19 8.507812 19 19zm0 0" fill="#b9b7b8"/><path d="m206 351.511719h-29.332031c10.492187 0 19 8.507812 19 19v25.839843h29.332031v-25.839843c0-10.492188-8.507812-19-19-19zm0 0" fill="#a3a1a2"/><path d="m273 24.484375c0 9.386719-7.609375 17-17 17s-17-7.613281-17-17c0-9.390625 7.609375-17 17-17s17 7.609375 17 17zm0 0" fill="#495663"/><path d="m495.171875 388.851562h-2.3125c.066406-.601562.105469-1.210937.105469-1.828124v-267.257813c0-9.277344-7.550782-16.828125-16.832032-16.828125h-101.375l-93.144531-92.402344c-14.109375-14-37.023437-14.09375-51.226562 0l-93.140625 92.402344h-101.378906c-9.28125 0-16.832032 7.550781-16.832032 16.828125v267.257813c0 .617187.039063 1.226562.105469 1.828124h-2.3125c-9.277344 0-16.828125 7.550782-16.828125 16.832032v15.671875c0 9.28125 7.550781 16.832031 16.828125 16.832031h302.171875c4.140625 0 7.5-3.359375 7.5-7.5s-3.359375-7.5-7.5-7.5h-302.171875c-1.007813 0-1.828125-.820312-1.828125-1.832031v-15.671875c0-1.007813.820312-1.832032 1.828125-1.832032h478.34375c1.007813 0 1.828125.824219 1.828125 1.832032v15.671875c0 1.011719-.820312 1.832031-1.828125 1.832031h-148.171875c-4.140625 0-7.5 3.359375-7.5 7.5s3.359375 7.5 7.5 7.5h148.171875c9.277344 0 16.828125-7.550781 16.828125-16.832031v-15.671875c0-9.28125-7.550781-16.832032-16.828125-16.832032zm-362.671875-18.339843c0-6.347657 5.242188-11.5 11.5-11.5 66.0625.023437 62.398438-.113281 64.089844.199219 5.757812 1.085937 9.410156 6.214843 9.410156 11.300781v18.339843h-85zm133-346.027344c0 5.238281-4.261719 9.5-9.5 9.5s-9.5-4.261719-9.5-9.5c0-4.921875 3.796875-9.792969 10.671875-9.421875 4.6875.582031 8.328125 4.578125 8.328125 9.421875zm-33.378906 5.457031c2.488281 10.890625 12.246094 19.042969 23.878906 19.042969s21.390625-8.152344 23.878906-19.042969l73.578125 72.996094h-194.914062zm-198.085938 89.824219c0-1.007813.824219-1.828125 1.832032-1.828125h440.269531c1.007812 0 1.828125.820312 1.828125 1.828125v267.257813c0 1.007812-.820313 1.828124-1.828125 1.828124h-243.636719v-15h222.964844c4.140625 0 7.5-3.355468 7.5-7.5v-225.914062c0-4.144531-3.359375-7.5-7.5-7.5h-320.464844c-4.140625 0-7.5 3.355469-7.5 7.5 0 4.140625 3.359375 7.5 7.5 7.5h312.964844v210.914062h-218.15625c-4.050782-8.359374-12.195313-13.9375-21.542969-14.734374-3.089844-.261719-65.417969-.09375-66.535156 0-9.371094.800781-17.492188 6.386718-21.539063 14.734374h-56.15625v-210.914062h42.964844c4.140625 0 7.5-3.359375 7.5-7.5 0-4.144531-3.359375-7.5-7.5-7.5h-50.464844c-4.140625 0-7.5 3.355469-7.5 7.5v225.914062c0 4.144532 3.359375 7.5 7.5 7.5h60.964844v15h-81.632812c-1.011719 0-1.832032-.820312-1.832032-1.828124zm0 0"/></svg>