<svg id="Capa_1" enable-background="new 0 0 512 512" height="512" viewBox="0 0 512 512" width="512" xmlns="http://www.w3.org/2000/svg"><g><g><g fill="#fed843"><circle cx="256" cy="256" r="140.718"/><path d="m81.679 256c0-8.284-6.716-15-15-15h-51.679c-8.284 0-15 6.716-15 15s6.716 15 15 15h51.679c8.284 0 15-6.716 15-15z"/><path d="m96.194 74.981c-5.857-5.857-15.355-5.857-21.213 0s-5.858 15.355 0 21.213l36.542 36.542c2.929 2.929 6.768 4.394 10.606 4.394s7.678-1.465 10.606-4.394c5.858-5.857 5.858-15.355 0-21.213z"/><path d="m256 0c-8.284 0-15 6.716-15 15v51.679c0 8.284 6.716 15 15 15s15-6.716 15-15v-51.679c0-8.284-6.716-15-15-15z"/></g><path d="m389.871 137.13c3.839 0 7.678-1.465 10.606-4.394l36.542-36.542c5.858-5.857 5.858-15.355 0-21.213-5.857-5.857-15.355-5.857-21.213 0l-36.542 36.542c-5.858 5.857-5.858 15.355 0 21.213 2.929 2.929 6.768 4.394 10.607 4.394z" fill="#fabe2c"/><path d="m497 241h-51.678c-8.284 0-15 6.716-15 15s6.716 15 15 15h51.678c8.284 0 15-6.716 15-15s-6.716-15-15-15z" fill="#fabe2c"/><path d="m400.478 379.265c-5.857-5.857-15.355-5.857-21.213 0s-5.858 15.355 0 21.213l36.542 36.542c2.929 2.929 6.768 4.394 10.606 4.394s7.678-1.465 10.606-4.394c5.858-5.857 5.858-15.355 0-21.213z" fill="#fabe2c"/><path d="m256 430.322c-8.284 0-15 6.716-15 15v51.678c0 8.284 6.716 15 15 15s15-6.716 15-15v-51.678c0-8.284-6.716-15-15-15z" fill="#fed843"/><path d="m111.523 379.265-36.542 36.542c-5.858 5.857-5.858 15.355 0 21.213 2.929 2.929 6.768 4.394 10.606 4.394s7.678-1.465 10.606-4.394l36.542-36.542c5.858-5.857 5.858-15.355 0-21.213-5.856-5.858-15.354-5.858-21.212 0z" fill="#fed843"/><path d="m256.406 430.343v81.637c8.095-.218 14.594-6.833 14.594-14.98v-51.678c0-8.147-6.499-14.762-14.594-14.979z" fill="#fabe2c"/><path d="m256.406.021v81.638c8.095-.218 14.594-6.833 14.594-14.98v-51.679c0-8.147-6.499-14.762-14.594-14.979z" fill="#fabe2c"/></g><path d="m256 115.283c-.073 0-.144.003-.217.003v281.429c.073 0 .144.003.217.003 77.592 0 140.718-63.126 140.718-140.718s-63.126-140.717-140.718-140.717z" fill="#fabe2c"/></g></svg>