<svg id="Capa_1" enable-background="new 0 0 512 512" height="512" viewBox="0 0 512 512" width="512" xmlns="http://www.w3.org/2000/svg"><g><path d="m328 377h-80c-8.284 0-15 6.716-15 15s6.716 15 15 15h80c8.284 0 15-6.716 15-15s-6.716-15-15-15z"/><path d="m248 343h56c8.284 0 15-6.716 15-15s-6.716-15-15-15h-56c-8.284 0-15 6.716-15 15s6.716 15 15 15z"/><path d="m512 160c0-65.617-53.383-119-119-119-51.962 0-96.246 33.48-112.429 80h-235.571c-24.813 0-45 20.187-45 45v260c0 24.813 20.187 45 45 45h373c24.813 0 45-20.187 45-45v-169.829c29.677-21.661 49-56.699 49-96.171zm-119-89c49.075 0 89 39.925 89 89s-39.925 89-89 89-89-39.925-89-89 39.925-89 89-89zm40 355c0 8.271-6.729 15-15 15h-373c-8.271 0-15-6.729-15-15v-260c0-8.271 6.729-15 15-15h229.339c-.223 2.972-.339 5.973-.339 9 0 65.617 53.383 119 119 119 14.028 0 27.493-2.447 40-6.924z"/><path d="m363.583 190.708c2.264 4.528 6.659 7.608 11.687 8.192.579.066 1.156.1 1.731.1 4.421 0 8.654-1.956 11.522-5.397l40-48c5.303-6.364 4.443-15.822-1.921-21.126-6.363-5.303-15.822-4.443-21.126 1.921l-25.317 30.381-5.743-11.486c-3.705-7.41-12.716-10.415-20.125-6.708-7.41 3.704-10.413 12.715-6.708 20.124z"/><path d="m167.088 302.647c9.83-9.941 15.912-23.595 15.912-38.647 0-30.327-24.673-55-55-55s-55 24.673-55 55c0 15.052 6.082 28.706 15.912 38.647-14.552 11.55-23.912 29.374-23.912 49.353v40c0 8.284 6.716 15 15 15h96c8.284 0 15-6.716 15-15v-40c0-19.979-9.36-37.803-23.912-49.353zm-64.088-38.647c0-13.785 11.215-25 25-25s25 11.215 25 25-11.215 25-25 25-25-11.215-25-25zm58 113h-66v-25c0-18.196 14.804-33 33-33s33 14.804 33 33z"/></g></svg>