<svg id="Layer_1" enable-background="new 0 0 512.008 512.008" height="512" viewBox="0 0 512.008 512.008" width="512" xmlns="http://www.w3.org/2000/svg"><g><g clip-rule="evenodd" fill-rule="evenodd"><path d="m133.968 397.53h244.056c22.376 0 41.788-20.855 59.043-34.972 27.121-22.188 34.121-40.984 34.121-73.947 0-21.197 0-42.394 0-63.59 0-37.969-7.896-56.915-31.522-85.268-15.471-18.566-30.439-31.075-45.91-49.641-27.365-32.838-81.589-33.657-137.761-33.657s-110.395.819-137.76 33.657c-15.471 18.566-30.438 31.075-45.91 49.641-23.626 28.352-31.522 47.298-31.522 85.268v63.59c0 32.963 7 51.76 34.121 73.947 17.256 14.117 36.668 34.972 59.044 34.972z" fill="#ffc144"/><path d="m150.883 67.799c-54.872-62.1-155.325-73.614-139.145 20.891 11.793-33.608 65.526-23.802 97.181 12.024 3.09-3.354 6.193-6.854 9.316-10.602 8.526-10.231 19.66-17.355 32.648-22.313z" fill="#ffcd69"/><path d="m108.919 100.714c-31.655-35.826-85.389-45.632-97.181-12.024 4.001 23.369 15.134 53.222 35.852 90.395 4.919-13.147 12.831-25.046 24.736-39.332 12.348-14.818 24.375-25.778 36.593-39.039z" fill="#ffda8f"/><path d="m150.883 67.799c-12.988 4.959-24.121 12.082-32.648 22.313-3.123 3.748-6.225 7.249-9.315 10.603 23.166 24.526 36.666 24.526 59.666 10.526s23.337-33.712 14.418-51.356c-11.542 1.681-22.356 4.185-32.121 7.914z" fill="#8690af"/><path d="m229.906 61.205c0 28.187 11.681 51.036 26.09 51.036s26.09-22.85 26.09-51.036c0-1.527-.035-3.052-.105-4.573-8.552-.157-17.245-.177-25.985-.177s-17.433.02-25.985.177c-.07 1.52-.105 3.046-.105 4.573z" fill="#8690af"/><path d="m328.988 59.884c-8.918 17.644-8.582 37.356 14.418 51.356s36.5 14 59.666-10.526c-3.09-3.354-6.193-6.854-9.316-10.602-8.526-10.231-19.66-17.354-32.647-22.313-9.766-3.729-20.579-6.233-32.121-7.915z" fill="#8690af"/><path d="m361.109 67.799c12.987 4.959 24.121 12.082 32.647 22.313 3.123 3.748 6.225 7.249 9.315 10.603 31.656-35.826 85.389-45.633 97.182-12.024 16.18-94.506-84.273-82.992-139.144-20.892z" fill="#ffcd69"/><path d="m500.254 88.69c-11.793-33.608-65.526-23.802-97.182 12.024 12.219 13.261 24.246 24.221 36.594 39.039 11.905 14.287 19.816 26.185 24.735 39.332 20.719-37.173 31.852-67.026 35.853-90.395z" fill="#ffda8f"/><g fill="#8690af"><ellipse cx="301.408" cy="159.488" rx="20" ry="20" transform="matrix(.974 -.228 .228 .974 -28.407 72.854)"/><ellipse cx="210.584" cy="159.488" rx="20" ry="20" transform="matrix(.019 -1 1 .019 47.181 367.05)"/><path d="m82.584 222.489c2.5-13.5 5.011-33.057-34.995-43.404-4.843 12.944-6.786 27.099-6.786 45.935v12.969c19.781 5.75 39.281-2 41.781-15.5z"/><ellipse cx="123.084" cy="268.989" rx="20" ry="20" transform="matrix(.973 -.232 .232 .973 -58.984 35.845)"/><path d="m94.584 319.239c-17.5-17.5-35.895 4.749-46.637 10.951 5.165 11.362 13.637 21.455 26.978 32.369 3.245 2.655 6.566 5.548 9.969 8.496 20.997-20.998 27.19-34.316 9.69-51.816z"/><ellipse cx="388.907" cy="268.989" rx="20" ry="20" transform="matrix(.378 -.926 .926 .378 -7.147 527.339)"/><path d="m464.045 330.189c-10.742-6.202-29.137-28.451-46.637-10.951s-11.307 30.818 9.691 51.815c3.403-2.948 6.724-5.841 9.969-8.495 13.339-10.913 21.812-21.006 26.977-32.369z"/><path d="m429.407 222.489c2.5 13.5 22 21.25 41.781 15.5 0-4.323 0-8.646 0-12.969 0-18.837-1.943-32.991-6.787-45.935-40.005 10.347-37.494 29.904-34.994 43.404z"/></g><path d="m255.996 395.799c-24.862 0-45.017-20.084-45.017-34.286-67.763-8.881-84.453 25.612-72.262 55.167 6.554 15.891 21.458 30.355 41.262 35.881 21.145 5.9 47.877 1.61 75.995-22.011 28.118 23.622 54.849 27.911 75.995 22.011 19.804-5.526 34.708-19.989 41.262-35.881 12.187-29.548-4.492-64.032-72.217-55.173v.006c-.001 14.201-20.156 34.286-45.018 34.286z" fill="#ffda8f"/><path d="m255.973 430.549c-28.118 23.622-54.849 27.911-75.995 22.011 14.559 25.208 45.771 40.002 75.995 39.988 30.224.014 61.436-14.781 75.995-39.988-21.146 5.9-47.877 1.611-75.995-22.011z" fill="#ffda8f"/><path d="m210.978 361.513c0 14.202 20.155 34.286 45.017 34.286 24.855 0 45.012-20.073 45.017-34.286 0-.002 0-.004 0-.006-.006-14.198-20.159-25.708-45.017-25.708-24.861 0-45.017 11.512-45.017 25.714z" fill="#c68a65"/></g><g><path d="m489.76 18.867c-31.942-22.615-90.992-5.755-131.618 36.663-30.525-9.793-67.797-9.81-102.146-9.81-34.354 0-71.633.017-102.161 9.815-17.028-17.755-38.059-31.765-59.868-39.755-24.749-9.067-47.81-9.405-64.934-.953-14.248 7.032-36.633 26.581-26.47 78.493.935 4.771 5.118 8.081 9.803 8.081.637 0 1.283-.061 1.932-.188 5.42-1.062 8.954-6.315 7.893-11.735-.03-.153-.058-.31-.088-.464 2.828-6.004 7.835-9.644 15.251-11.083 14.777-2.871 38.324 3.985 57.721 22.143-2.286 2.372-4.591 4.73-6.939 7.127-7.621 7.78-15.501 15.825-23.494 25.416-25.934 31.12-33.84 52.539-33.84 91.669v63.59c0 37.96 9.536 58.573 37.789 81.687 2.859 2.34 5.787 4.877 8.887 7.563 13.672 11.849 28.917 25.049 46.914 28.687 2.231 16.776 12.426 33.724 28.56 45.36 6.146 4.433 12.794 7.845 19.791 10.211 16.644 25.565 48.836 41.898 83.174 41.898h.098c34.336-.001 66.549-16.34 83.19-41.906 6.994-2.366 13.641-5.772 19.785-10.204 16.131-11.634 26.325-28.577 28.559-45.35 18.019-3.625 33.279-16.839 46.96-28.696 3.1-2.687 6.028-5.225 8.888-7.564 28.253-23.114 37.789-43.727 37.789-81.687v-63.59c0-17.814-1.647-31.953-5.879-45.012 58.467-106.897 34.289-146.362 14.453-160.406zm-28.572 205.419v4.726c-6.69.61-13.1-.612-17.556-3.498-1.741-1.127-3.917-3.01-4.392-5.58-1.921-10.374-3.879-21.062 18.58-29.131 2.437 9.647 3.368 20.277 3.368 33.483zm-13.84-91.669c-7.993-9.592-15.873-17.636-23.494-25.416-2.348-2.397-4.653-4.755-6.939-7.127 19.419-18.181 42.984-25.027 57.763-22.135 7.361 1.439 12.345 5.051 15.174 10.996-3.69 18.994-12.116 41.822-25.125 67.513-4.594-7.594-10.312-15.352-17.379-23.831zm30.855-97.427c8.102 5.736 12.585 15.247 13.581 27.897-3.956-2.208-8.397-3.825-13.266-4.777-23.239-4.545-52.82 6.398-75.081 27.022-.665-.778-1.33-1.554-1.998-2.356-6.574-7.889-14.493-14.093-23.384-18.995 32.845-30.709 78.026-44.453 100.148-28.791zm-143.081 35.176c21.112 4.01 39.339 11.478 50.952 25.413 1.078 1.293 2.153 2.554 3.227 3.795-16.151 14.879-24.472 12.264-40.695 2.389-13.275-8.08-17.721-18.458-13.484-31.597zm-63.193-4.607c-1.253 21.689-9.997 35.747-15.933 35.747s-14.68-14.059-15.933-35.747c5.355-.036 10.682-.039 15.933-.039s10.578.003 15.933.039zm-108.543 36.204c-16.223 9.875-24.544 12.491-40.695-2.389 1.073-1.24 2.149-2.501 3.227-3.795 11.612-13.935 29.838-21.403 50.948-25.413 4.233 13.143-.209 23.519-13.48 31.597zm-129.842-43.667c-4.894.95-9.355 2.572-13.329 4.789 1.013-12.759 5.708-24.42 17.67-30.324 23.642-11.67 65.348 2.498 96.053 31.219-8.891 4.902-16.811 11.106-23.385 18.996-.668.802-1.333 1.578-1.999 2.356-22.235-20.598-51.79-31.543-75.01-27.036zm46.463 87.124c7.479-8.974 14.735-16.382 22.417-24.225 2.227-2.273 4.477-4.576 6.745-6.926 11.594 10.59 21.979 15.731 33.143 15.731 9.511 0 19.591-3.721 31.474-10.954 20.38-12.406 28.433-30.757 23.092-51.466 7.575-.731 15.345-1.177 23.176-1.446 1.586 31.937 16.502 55.37 35.943 55.37s34.357-23.433 35.942-55.37c7.828.268 15.595.714 23.168 1.445-5.357 20.708 2.685 39.039 23.1 51.466 11.884 7.234 21.961 10.955 31.474 10.954 11.162-.001 21.549-5.143 33.142-15.732 2.267 2.35 4.518 4.653 6.745 6.926 7.682 7.843 14.938 15.251 22.417 24.225 8.197 9.837 14.257 18.324 18.672 26.741-14.238 5.268-23.642 12.556-28.578 22.124-5.834 11.307-3.667 23.005-2.504 29.29 1.383 7.465 6.066 14.116 13.188 18.727 6.965 4.51 15.839 6.863 25.167 6.863 1.081 0 2.168-.034 3.259-.098v38.809c0 9.832-.688 18.101-2.335 25.404-5.094-3.804-11.052-7.775-17.737-9.862-11.348-3.543-21.993-.772-30.779 8.015-10.931 10.931-14.977 21.877-12.37 33.466 1.72 7.643 6.094 15.117 14.611 24.654-8.675 7.18-17.511 13.506-26.458 16.049-.366-1.231-.774-2.451-1.25-3.65-2.342-5.906-5.907-11.125-10.552-15.556-1.447-19.909-11.929-35.668-22.087-50.939-11.025-16.575-21.439-32.23-21.439-53.32 0-10.382.841-19.016 2.536-26.029 2.723 2.78 6.513 4.509 10.712 4.509h.008c8.284 0 14.996-6.716 14.996-15 0-5.367-2.83-10.063-7.07-12.714 4.691-1.575 10.39-2.338 17.267-2.338 5.523 0 10-4.477 10-10s-4.477-10-10-10c-20.003 0-34.392 5.539-43.986 16.933-9.867 11.717-14.463 29.079-14.463 54.639 0 27.134 13.168 46.931 24.786 64.397 6.227 9.361 11.922 17.933 15.401 26.876-11.731-3.516-25.813-4.607-42.025-3.255-2.927-6.264-8.359-11.881-15.869-16.171-10.069-5.751-23.241-8.919-37.09-8.919s-27.021 3.167-37.09 8.919c-7.511 4.291-12.944 9.91-15.87 16.175-16.206-1.356-30.284-.271-42.016 3.235 3.479-8.937 9.171-17.504 15.393-26.859 11.618-17.466 24.786-37.263 24.786-64.397 0-25.56-4.596-42.921-14.463-54.639-9.595-11.394-23.983-16.933-43.986-16.933-5.523 0-10 4.477-10 10s4.477 10 10 10c6.875 0 12.573.763 17.263 2.337-4.238 2.65-7.066 7.347-7.066 12.715 0 8.284 6.72 15 15.004 15 4.198 0 7.989-1.729 10.712-4.509 1.695 7.013 2.536 15.647 2.536 26.029 0 21.09-10.414 36.746-21.438 53.32-10.15 15.259-20.623 31.005-22.084 50.89-4.67 4.441-8.251 9.677-10.602 15.605-.474 1.195-.881 2.412-1.246 3.639-8.927-2.549-17.745-8.861-26.401-16.025 14.777-16.485 24.73-35.629 2.228-58.132-8.787-8.788-19.43-11.557-30.78-8.015-6.686 2.087-12.643 6.059-17.737 9.862-1.647-7.303-2.335-15.572-2.335-25.404v-38.808c1.104.065 2.204.103 3.297.103 9.117 0 17.796-2.254 24.724-6.61 7.355-4.625 12.183-11.368 13.594-18.986 1.153-6.227 3.3-17.819-2.38-29.047-4.901-9.69-14.34-17.057-28.701-22.369 4.413-8.417 10.473-16.903 18.669-26.739zm175.989 240.206c-20.118 0-35.439-16.4-35.439-24.607 0-6.505 13.806-15.955 35.439-15.955 21.161 0 34.825 9.04 35.411 15.524-.013.302-.014.605.001.911-.565 8.347-15.675 24.127-35.412 24.127zm-201.825-194.823c22.467 8.085 20.5 18.766 18.581 29.13-.488 2.638-2.757 4.554-4.575 5.697-3.661 2.302-9.824 4.092-17.373 3.392v-4.736c-.001-13.205.93-23.835 3.367-33.483zm6.802 141.659c.21-.162.415-.318.626-.482 14.49-11.184 19.819-12.501 25.914-6.404 9.051 9.051 11.447 14.665-3.293 30.977-.987-.833-1.973-1.659-2.963-2.469-9.006-7.367-15.587-14.197-20.284-21.622zm84.693 56.863c5.944-14.989 26.353-21.832 56.461-19.17 5.11 15.428 22.271 30.826 43.868 34.589v21.159c-28.321 22.092-58.474 25.543-81.344 9.049-16.437-11.855-24.599-31.471-18.985-45.627zm110.34 93.958c-.024 0-.051 0-.077 0-19.779 0-39.04-6.891-53.045-18.203 17.954-1.349 35.777-8.599 53.088-21.604 17.31 13.005 35.133 20.255 53.086 21.604-14.006 11.311-33.272 18.203-53.052 18.203zm91.287-48.331c-22.857 16.485-52.99 13.046-81.297-9.013v-21.196c21.599-3.763 38.761-19.164 43.869-34.593 30.081-2.651 50.473 4.194 56.413 19.174 5.615 14.157-2.547 33.773-18.985 45.628zm83.442-80.868c-.99.81-1.977 1.636-2.965 2.47-14.754-16.32-12.363-21.907-3.292-30.978 6.096-6.098 11.424-4.78 25.913 6.404.212.163.417.321.627.482-4.697 7.425-11.278 14.255-20.283 21.622z"/><path d="m123.084 298.254c16.542 0 30-13.458 30-30s-13.458-30-30-30-30 13.458-30 30 13.458 30 30 30zm0-40c5.514 0 10 4.486 10 10s-4.486 10-10 10-10-4.486-10-10 4.486-10 10-10z"/><path d="m210.584 188.754c16.542 0 30-13.458 30-30s-13.458-30-30-30-30 13.458-30 30 13.458 30 30 30zm0-40.001c5.514 0 10 4.486 10 10s-4.486 10-10 10-10-4.486-10-10 4.486-10 10-10z"/><path d="m358.908 268.254c0 16.542 13.458 30 30 30s30-13.458 30-30-13.458-30-30-30-30 13.458-30 30zm30-10c5.514 0 10 4.486 10 10s-4.486 10-10 10-10-4.486-10-10 4.485-10 10-10z"/><path d="m301.408 188.754c16.542 0 30-13.458 30-30s-13.458-30-30-30-30 13.458-30 30 13.458 30 30 30zm0-40.001c5.514 0 10 4.486 10 10s-4.486 10-10 10-10-4.486-10-10 4.486-10 10-10z"/><path d="m35.953 134.313c0-5.523-4.477-10-10-10h-.007c-5.523 0-9.996 4.477-9.996 10s4.48 10 10.003 10 10-4.477 10-10z"/></g></g></svg>