<svg id="Capa_1" enable-background="new 0 0 512 512" height="512" viewBox="0 0 512 512" width="512" xmlns="http://www.w3.org/2000/svg"><g><g><g><path d="m448.431 306.47h-33.936v-186.861c-.001-66.058-53.551-119.609-119.609-119.609h-16.794c-66.058 0-119.608 53.551-119.608 119.609v186.861h-22.181v64.79l13.828-14.122c3.022-3.022 7.045-4.691 11.319-4.691 4.24 0 8.222 1.646 11.212 4.636 6.195 6.195 6.166 16.305-.066 22.536l-33.365 33.365c-2.135 2.135-3.311 4.973-3.311 7.992v91.024h348.567c5.69 0 10.302-4.612 10.302-10.302v-148.87c0-25.603-20.755-46.358-46.358-46.358z" fill="#f3f0f3"/></g><g><path d="m436.895 403.831h-16.998c-1.707 0-3.091-1.384-3.091-3.091v-16.998c0-1.707-1.384-3.091-3.091-3.091h-19.573c-1.707 0-3.091 1.384-3.091 3.091v16.998c0 1.707-1.384 3.091-3.091 3.091h-16.998c-1.707 0-3.091 1.384-3.091 3.091v19.573c0 1.707 1.384 3.091 3.091 3.091h16.998c1.707 0 3.091 1.384 3.091 3.091v16.998c0 1.707 1.384 3.091 3.091 3.091h19.573c1.707 0 3.091-1.384 3.091-3.091v-16.998c0-1.707 1.384-3.091 3.091-3.091h16.998c1.707 0 3.091-1.384 3.091-3.091v-19.573c-.001-1.707-1.384-3.091-3.091-3.091z" fill="#05e39c"/></g><g><path d="m158.483 152.152c0-34.366 18.352-64.526 45.769-81.196 17.44-39.115 55.254-67.147 99.962-70.596-3.079-.237-6.189-.36-9.328-.36h-16.794c-66.058 0-119.608 53.55-119.608 119.608z" fill="#e2dee2"/><g><path d="m158.483 207.658v98.811h-21.181v36.854c6.71-3.776 14.448-5.939 22.695-5.939h18.484c8.534 0 15.453-6.918 15.453-15.453v-35.436c-21.735-19.347-35.451-47.518-35.451-78.837z" fill="#e2dee2"/></g></g><path d="m264.033 313.209c-58.2 0-105.551-47.35-105.551-105.551v-55.507c0-52.358 42.596-94.954 94.954-94.954h66.104c52.357 0 94.954 42.596 94.954 94.954v55.507c0 58.201-47.35 105.551-105.552 105.551z" fill="#cbc4cc"/><path d="m268.746 313.209h35.484v198.791h-35.484z" fill="#e2dee2"/><path d="m264.033 313.209c-58.2 0-105.551-47.35-105.551-105.551v-55.507c0-52.358 42.596-94.954 94.954-94.954h66.104c52.357 0 94.954 42.596 94.954 94.954v55.507c0 58.201-47.35 105.551-105.552 105.551z" fill="#cbc4cc"/><g><path d="m181.238 206.869v-53.555c0-32.054 20.672-59.353 49.378-69.314 17.103-16.579 40.401-26.802 66.045-26.802h-43.225c-52.357 0-94.954 42.596-94.954 94.954v55.507c0 58.201 47.35 105.551 105.551 105.551h43.225c-27.555 0-52.674-10.618-71.491-27.973-31.806-11.831-54.529-42.493-54.529-78.368z" fill="#b5adb6"/></g><g><path d="m308.153 282.954h-43.33c-42.021 0-76.085-34.064-76.085-76.085v-53.555c0-36.374 29.487-65.86 65.86-65.86h63.779c36.374 0 65.86 29.487 65.86 65.86v53.555c.001 42.02-34.063 76.085-76.084 76.085z" fill="#f6a96c"/><path d="m264.823 276.454h43.33c38.369 0 69.585-31.216 69.585-69.585v-10.619h-63.435l-15.453-19.573h-24.724l-15.453 19.573h-63.435v10.619c0 38.369 31.216 69.585 69.585 69.585z" fill="#fff"/><path d="m263.833 275.428c-25.477-12.297-43.055-38.375-43.055-68.56v-3.119h-24.539v3.119c-.001 37.486 30.233 68.027 67.594 68.56z" fill="#f3f0f3"/><path d="m195.238 196.25h63.435l15.453-19.573h24.724l15.453 19.573h63.435v-42.936c0-14.658-5.352-28.082-14.189-38.449h-154.122c-8.837 10.367-14.189 23.791-14.189 38.449z" fill="#8ac9fe"/><path d="m188.738 153.314v42.935h32.039v-42.935c0-14.356 4.607-27.628 12.404-38.449h-32.039c-7.796 10.821-12.404 24.093-12.404 38.449z" fill="#60b7ff"/><g><path d="m203.967 122.365h165.042c-3.501-5.707-7.939-10.778-13.099-15h-138.844c-5.16 4.223-9.598 9.294-13.099 15z" fill="#26a6fe"/></g><g><path d="m267.654 196.979 9.266-11.737c.534-.677 1.336-1.065 2.199-1.065h14.74c.863 0 1.665.388 2.199 1.065l9.266 11.737c3.397 4.303 8.49 6.771 13.972 6.771h58.443v-15h-58.443c-.863 0-1.664-.389-2.199-1.066l-9.266-11.737c-3.397-4.303-8.49-6.771-13.972-6.771h-14.74c-5.483 0-10.576 2.468-13.973 6.771l-9.266 11.737c-.535.677-1.336 1.066-2.199 1.066h-58.443v15h58.443c5.483 0 10.575-2.468 13.973-6.771z" fill="#26a6fe"/></g><g><g><path d="m243.432 170.784c-4.142 0-7.5-3.358-7.5-7.5v-22.11c0-4.142 3.358-7.5 7.5-7.5s7.5 3.358 7.5 7.5v22.11c0 4.142-3.358 7.5-7.5 7.5z" fill="#26a6fe"/></g><g><path d="m329.545 170.784c-4.142 0-7.5-3.358-7.5-7.5v-22.11c0-4.142 3.358-7.5 7.5-7.5s7.5 3.358 7.5 7.5v22.11c0 4.142-3.358 7.5-7.5 7.5z" fill="#26a6fe"/></g></g><g><g><path d="m333.876 225.254h-94.776c-4.142 0-7.5-3.358-7.5-7.5s3.358-7.5 7.5-7.5h94.776c4.142 0 7.5 3.358 7.5 7.5s-3.357 7.5-7.5 7.5z" fill="#e2dee2"/></g><g><path d="m329.364 252.168h-85.75c-4.142 0-7.5-3.358-7.5-7.5s3.358-7.5 7.5-7.5h85.75c4.142 0 7.5 3.358 7.5 7.5s-3.358 7.5-7.5 7.5z" fill="#e2dee2"/></g></g></g><g><path d="m404.157 442.113c-1.707 0-3.091-1.384-3.091-3.091v-16.998c0-1.707-1.384-3.091-3.091-3.091h-16.998c-1.707 0-3.091-1.384-3.091-3.091v-12.012h-6.924c-1.707 0-3.091 1.384-3.091 3.091v19.573c0 1.707 1.384 3.091 3.091 3.091h16.998c1.707 0 3.091 1.384 3.091 3.091v16.998c0 1.707 1.384 3.091 3.091 3.091h19.573c1.707 0 3.091-1.384 3.091-3.091v-7.561z" fill="#0ed290"/></g><path d="m173.368 356.376c-6.598-6.598-17.322-6.568-23.952.062l-12.113 12.371v-95.87c.015-5.822-4.735-10.573-10.558-10.556l-4.649.013c-5.821.016-10.597 4.792-10.613 10.613v73.54l-5.574.016v-83.356c.017-5.821-4.735-10.573-10.556-10.556l-4.651.013c-5.823.015-10.598 4.792-10.614 10.613v83.355l-5.599.015v-83.358c.015-5.82-4.736-10.571-10.556-10.557l-4.651.014c-5.82.012-10.595 4.788-10.612 10.612v83.358l-5.641.013v-69.05c.017-5.822-4.734-10.574-10.557-10.557l-4.647.013c-5.823.015-10.596 4.789-10.613 10.613v223.93c-.01 5.697 4.213 10.32 9.909 10.32h109.799v-91.025c0-2.732 1.085-5.353 3.017-7.284l33.365-33.365c6.631-6.631 6.66-17.356.066-23.95z" fill="#05e39c"/><g><path d="m45.647 501.68v-154.955l-2.619.006v-69.05c.017-5.822-4.734-10.574-10.557-10.557l-4.647.013c-5.823.015-10.596 4.789-10.613 10.613v223.93c-.01 5.697 4.213 10.32 9.909 10.32h28.435c-5.695 0-9.918-4.623-9.908-10.32z" fill="#0ed290"/></g></g><g><g><path d="m308.153 290.454h-43.33c-46.089 0-83.585-37.496-83.585-83.585v-53.555c0-40.451 32.909-73.36 73.36-73.36h63.779c40.451 0 73.36 32.909 73.36 73.36v53.555c.001 46.089-37.495 83.585-83.584 83.585zm-53.554-195.5c-32.18 0-58.36 26.18-58.36 58.36v53.555c0 37.818 30.767 68.585 68.585 68.585h43.33c37.818 0 68.585-30.767 68.585-68.585v-53.555c0-32.18-26.18-58.36-58.36-58.36z" fill="#e2dee2"/></g></g></g></svg>