<svg height="511pt" viewBox="0 -48 511.99864 511" width="511pt" xmlns="http://www.w3.org/2000/svg"><path d="m24.859375 312.96875c3.820313 1.910156 7.933594 3.230469 12.175781 3.96875l-6.609375 9.4375c-1.335937 1.910156-2.207031 4.101562-2.550781 6.402344l-9.839844 66.359375c-.832031 5.621093 1.578125 11.230469 6.234375 14.488281 4.660157 3.261719 10.753907 3.605469 15.746094.902344l55.574219-30.09375c7.675781 13.867187 22.457031 23.28125 39.398437 23.28125 11.515625 0 22.035157-4.347656 30-11.484375 7.96875 7.136719 18.488281 11.484375 30 11.484375 24.816407 0 45.003907-20.1875 45.003907-45v-5.742188c27.902343 13.578125 58.972656 20.742188 90 20.742188 32.050781 0 63.835937-7.351563 92.003906-21.246094v36.246094c0 5.199218 2.691406 10.027344 7.113281 12.761718 4.414063 2.726563 9.9375 2.984376 14.59375.65625l60.003906-30c5.082031-2.542968 8.292969-7.734374 8.292969-13.417968v-180.003906c0-8.285157-6.71875-15-15-15-23.894531 0-81.863281 0-103.53125 0l-105.816406-51.777344 40.203125-57.414063c4.746093-6.78125 3.101562-16.140625-3.6875-20.890625l-49.148438-34.417968c-6.78125-4.746094-16.140625-3.101563-20.890625 3.683593-6.351562 9.070313-46.882812 66.957031-53.191406 75.964844-12.304688-6.464844-27.058594-6.433594-36.417969-2.371094l-57.078125 24.796875c-8.273437 3.597656-15.207031 9.519532-20.042968 17.132813l-81.90625 128.828125c-5.320313 8.371094-7.523438 22.734375-3.203126 35.699218 3.800782 11.402344 11.816407 20.644532 22.570313 26.023438zm27.253906 60.894531 4.921875-33.179687 13.414063-19.160156c5.75 8.394531 13.574219 15.25 22.730469 19.84375l-11.570313 16.523437zm82.875 3.855469c-8.269531 0-15-6.730469-15-15.003906v-7.332032l5.371094-7.667968h24.628906v15c0 8.273437-6.726562 15.003906-15 15.003906zm60.003907 0c-8.273438 0-15-6.730469-15-15.003906v-15h30v15c0 8.273437-6.730469 15.003906-15 15.003906zm287.007812-24.273438-30.003906 15v-170.734374h30.003906zm-98.597656-157.261718c2.054687 1.003906 4.308594 1.527344 6.59375 1.527344h32v125.53125c-10.109375 3.929687-41.5 24.472656-92 24.472656-53.535156 0-86.507813-23.710938-98.296875-28.417969-2.140625-1.070313-4.5-1.582031-6.707031-1.582031h-105.003907c-15.339843 0-28.019531-11.574219-29.78125-26.449219.46875-2.175781.425781-4.410156-.070312-6.546875 1.507812-15.140625 14.320312-27.003906 29.851562-27.003906h92.578125c31.363282 0 60.855469-12.214844 83.035156-34.394532 5.855469-5.859374 5.855469-15.355468 0-21.214843-5.859374-5.859375-15.355468-5.859375-21.214843 0-16.515625 16.511719-38.46875 25.609375-61.820313 25.609375h-3.179687l60.84375-86.898438zm-147.71875-110.640625 24.574218 17.210937-87.496093 124.960938h-36.625c12.753906-18.214844 87.847656-125.460938 99.546875-142.171875zm34.414062-49.148438 24.578125 17.207031-17.210937 24.578126-24.574219-17.210938zm-238.804687 230.1875 81.421875-128.066406c1.613281-2.539063 3.925781-4.511719 6.683594-5.710937l56.363281-24.488282c2.503906-.734375 5.085937-.785156 7.523437-.242187l-87.289062 124.660156c-18.449219 8.082031-32.082032 25.175781-35.285156 45.691406-2.742188 7.703125-14.660157 11.59375-22.433594 7.707031-7.316406-3.65625-10.222656-12.339843-6.984375-19.550781zm0 0"/></svg>